<svg width="20" height="20" viewBox="0 0 20 20" fill="none" xmlns="http://www.w3.org/2000/svg">
<path d="M17.4725 16.0583C16.8888 15.8182 16.6391 15.4994 16.6632 15.0237C16.6881 14.4686 16.3747 14.062 16.2258 13.9013C16.3157 13.5561 16.5785 12.362 16.2261 11.3248C15.8473 10.2147 14.6908 8.51916 13.4976 6.85249C13.0091 6.16804 12.986 5.42397 12.9593 4.56245C12.9337 3.74074 12.9048 2.80933 12.4488 1.7739C11.9529 0.646483 10.9579 0 9.71875 0C8.9816 0 8.22493 0.231484 7.64267 0.635038C6.45031 1.46187 6.60792 3.26456 6.71222 4.45734C6.72653 4.62069 6.73994 4.77499 6.7478 4.90671C6.81723 6.07499 6.75406 6.69077 6.67144 6.87792C6.61799 7.00022 6.35487 7.34827 6.07639 7.71682C5.78839 8.09799 5.46186 8.52994 5.19423 8.93248C4.87489 9.4169 4.6171 10.1573 4.36782 10.8733C4.18541 11.3971 4.0131 11.892 3.84539 12.1879C3.52749 12.7568 3.60661 13.2873 3.67262 13.5325C3.55226 13.6165 3.3784 13.782 3.23164 14.0937C3.05424 14.474 2.69432 14.6783 1.94589 14.8229C1.60195 14.8936 1.3648 15.039 1.24078 15.2548C1.06031 15.569 1.15863 15.9637 1.24828 16.2336C1.38078 16.6301 1.2982 16.8811 1.1481 17.3369C1.1135 17.442 1.07427 17.5612 1.03454 17.6925C0.971944 17.8998 0.994532 18.0882 1.10148 18.2527C1.38412 18.6868 2.20894 18.8399 3.05801 18.9407C3.56497 19.0011 4.11982 19.2048 4.65648 19.4019C5.18229 19.595 5.72603 19.7947 6.22023 19.8552C6.29535 19.8647 6.36976 19.8695 6.44148 19.8695C7.18769 19.8695 7.52483 19.372 7.63175 19.1676C7.89976 19.1127 8.82422 18.9367 9.77702 18.913C10.7283 18.8858 11.6487 19.0745 11.9094 19.1331C11.9914 19.2908 12.2075 19.6508 12.552 19.8364C12.7413 19.9404 13.0048 20 13.2746 20C13.5628 20 14.1112 19.9315 14.5451 19.4728C14.9779 19.012 16.0593 18.4236 16.849 17.994C17.0252 17.8982 17.1901 17.8084 17.3346 17.7275C17.7782 17.4805 18.0202 17.1275 17.9987 16.759C17.9806 16.4529 17.779 16.1844 17.4725 16.0583ZM10.2909 2.89042C10.7209 2.89042 11.0708 3.33788 11.0708 3.88788C11.0708 4.11675 11.0079 4.33511 10.8992 4.50866C10.9282 4.41593 10.9439 4.31554 10.9439 4.2114C10.9439 3.75148 10.6535 3.3912 10.2827 3.3912C9.92036 3.3912 9.62556 3.75913 9.62556 4.2114C9.62556 4.2423 9.62707 4.27312 9.62991 4.30394C9.61071 4.29659 9.59201 4.28933 9.57373 4.28237C9.53202 4.15542 9.51095 4.02308 9.51095 3.88788C9.51099 3.33792 9.8608 2.89042 10.2909 2.89042ZM8.96846 4.88921C9.13228 4.91827 9.5363 5.0803 9.83141 5.19866C9.96779 5.25335 10.0856 5.30062 10.1685 5.33046C10.4295 5.42062 10.5657 5.53597 10.5822 5.57905C10.576 5.6069 10.5628 5.61917 10.417 5.69538C10.3433 5.73386 10.2517 5.78175 10.1371 5.85198L10.0604 5.89862C9.75253 6.08624 9.03155 6.5255 8.83585 6.5512C8.70289 6.56917 8.62066 6.51729 8.4358 6.39112C8.39409 6.36261 8.34973 6.33229 8.30241 6.30182C7.96912 6.08202 7.75471 5.84011 7.73053 5.7455C7.83919 5.66112 8.10853 5.44987 8.24643 5.32476C8.52635 5.06323 8.80801 4.88749 8.94742 4.88749C8.95481 4.88737 8.9615 4.88788 8.96846 4.88921ZM7.86995 3.07515C8.18648 3.07515 8.45384 3.50367 8.45384 4.01097C8.45384 4.07495 8.44925 4.13859 8.43969 4.20652C8.42029 4.21484 8.40124 4.2239 8.3825 4.23339C8.3806 4.19109 8.37624 4.14835 8.36952 4.10538C8.30179 3.71359 8.04318 3.42917 7.75479 3.42917C7.73345 3.42917 7.71199 3.43081 7.68843 3.43441C7.51686 3.46312 7.38227 3.59257 7.30852 3.77624C7.37333 3.37339 7.60049 3.07515 7.86995 3.07515ZM6.90572 18.3253C6.83756 18.6472 6.47484 18.9089 6.38927 18.9668C6.35821 18.9739 6.31976 18.9775 6.27455 18.9775C5.77816 18.9775 4.79554 18.5626 4.26763 18.3397L4.18953 18.3066C3.89472 18.1825 3.4135 18.1043 2.94811 18.0286C2.5778 17.9683 2.07073 17.8859 1.98664 17.8113C1.91848 17.7345 1.99752 17.4848 2.06723 17.2647C2.11742 17.1064 2.16924 16.9427 2.19762 16.7714C2.2379 16.4982 2.19059 16.2757 2.1526 16.0969C2.12037 15.9453 2.09491 15.8256 2.12224 15.7097C2.14207 15.6238 2.56412 15.5318 2.74439 15.4924C2.99779 15.4371 3.2599 15.38 3.43127 15.2754C3.66302 15.1344 3.78851 14.8743 3.89919 14.6447C3.97932 14.4788 4.06209 14.3072 4.16057 14.2508C4.16612 14.2475 4.1746 14.2438 4.19077 14.2438C4.37528 14.2438 4.76242 14.6334 4.9855 14.9823C5.04206 15.0702 5.14688 15.2464 5.26813 15.4504C5.63082 16.0602 6.1274 16.8952 6.38675 17.1751C6.62044 17.4266 6.99875 17.9104 6.90572 18.3253ZM12.2908 14.0639C12.2074 14.464 12.1986 15.7437 12.1977 16.0313C12.0276 16.2484 11.1675 17.2709 9.93265 17.4547C9.42966 17.5281 8.95998 17.5654 8.53669 17.5654C8.17486 17.5654 7.94397 17.5373 7.8481 17.5228L7.22758 16.8094C7.47219 16.6879 7.71681 16.4318 7.65239 15.9697C7.59718 15.5788 7.0968 15.1912 6.51733 14.7424C6.04354 14.3754 5.50649 13.9595 5.35852 13.6071C5.05276 12.8805 5.29379 11.6026 5.71402 10.9447C5.9217 10.6152 6.09132 10.1156 6.25538 9.63248C6.4325 9.11076 6.61569 8.57131 6.82057 8.33522C7.145 7.96655 7.44482 7.24924 7.49793 6.68393C7.80172 6.97526 8.27298 7.3451 8.70837 7.3451C8.77539 7.3451 8.84047 7.33631 8.90264 7.31866C9.20051 7.23221 9.63862 6.97788 10.0623 6.73198C10.4276 6.51991 10.878 6.25839 11.0475 6.2346C11.3381 6.65389 13.0268 10.4087 13.1994 11.6145C13.3359 12.5686 13.1917 13.3574 13.1192 13.6663C13.0608 13.6583 12.9913 13.6518 12.9182 13.6518C12.4478 13.6518 12.3232 13.9098 12.2908 14.0639ZM17.0108 16.8602C16.9123 16.9506 16.5657 17.1285 16.2305 17.3004C15.6358 17.6054 14.9619 17.9513 14.6592 18.2711C14.233 18.7218 13.751 19.0245 13.4599 19.0245C13.4249 19.0245 13.393 19.02 13.3646 19.0109C13.0486 18.912 12.7884 18.4537 12.9282 17.8001C13.0755 17.1324 13.2452 16.2243 13.2177 15.6888C13.2114 15.5673 13.2007 15.4349 13.1903 15.3068C13.1709 15.0675 13.1421 14.7118 13.1718 14.6062C13.1777 14.6034 13.1842 14.6011 13.1915 14.5991C13.1927 14.9052 13.2589 15.5158 13.7449 15.7286C13.8897 15.7921 14.0552 15.8243 14.2367 15.8243C14.7235 15.8243 15.2636 15.5844 15.4849 15.362C15.6152 15.2312 15.7247 15.071 15.8015 14.9442C15.8182 14.9936 15.8286 15.0581 15.8231 15.1412C15.7942 15.5927 16.0126 16.1916 16.4282 16.4124L16.4886 16.4444C16.6367 16.5224 17.0298 16.7298 17.0362 16.8281C17.0362 16.8281 17.0327 16.8397 17.0108 16.8602Z" fill="white"/>
</svg>
