<svg width="16" height="20" viewBox="0 0 16 20" fill="none" xmlns="http://www.w3.org/2000/svg">
<path d="M11.8442 0C11.8902 0 11.9362 0 11.9848 0C12.0976 1.52637 11.5656 2.66688 10.919 3.49279C10.2846 4.31301 9.41586 5.10851 8.01074 4.98781C7.91701 3.48329 8.44989 2.42737 9.09561 1.60336C9.69445 0.835419 10.7923 0.152067 11.8442 0Z" fill="white"/>
<path d="M16 14.7426C16 14.7565 16 14.7687 16 14.7817C15.6079 15.9778 15.0486 17.0029 14.366 17.9542C13.743 18.8178 12.9794 19.98 11.6161 19.98C10.438 19.98 9.6555 19.2171 8.44813 19.1962C7.17096 19.1754 6.4686 19.8342 5.30087 20C5.16729 20 5.03372 20 4.90273 20C4.04524 19.875 3.35323 19.191 2.84908 18.5748C1.36249 16.7538 0.213724 14.4015 0 11.3914C0 11.0963 0 10.802 0 10.5069C0.090488 8.35258 1.12981 6.60099 2.51126 5.75211C3.24033 5.30076 4.24259 4.91624 5.35861 5.0881C5.83691 5.16275 6.32554 5.32766 6.75385 5.49084C7.15975 5.64795 7.66735 5.92657 8.14823 5.91181C8.47398 5.90227 8.79802 5.73128 9.12636 5.61063C10.0881 5.26083 11.0309 4.85982 12.2736 5.04817C13.7671 5.27559 14.8271 5.94393 15.4821 6.97509C14.2187 7.78492 13.2199 9.0053 13.3905 11.0893C13.5422 12.9824 14.6349 14.0899 16 14.7426Z" fill="white"/>
</svg>
