<svg width="20" height="20" viewBox="0 0 20 20" fill="none" xmlns="http://www.w3.org/2000/svg">
<path d="M9.16171 1.56957C12.7691 1.01896 16.3834 0.500343 19.9977 0C20 3.1597 19.9977 6.31711 20 9.47681C16.388 9.49052 12.776 9.54535 9.16171 9.55677C9.15941 6.89285 9.15941 4.23121 9.16171 1.56957ZM0 2.84441C2.71645 2.42632 5.44457 2.06534 8.17247 1.72493C8.17476 4.34544 8.17476 6.96367 8.17705 9.58419C5.45144 9.58191 2.72561 9.62303 0 9.61618V2.84441ZM0 10.4409C2.72355 10.4318 5.44663 10.4752 8.16995 10.4706C8.16995 13.098 8.17682 15.7254 8.17247 18.3528C5.45144 17.9504 2.72561 17.5988 0 17.231V10.4409ZM9.14567 10.546H19.9977C20.0023 13.6966 19.9977 16.8472 19.9977 20C16.3903 19.4608 12.776 18.9605 9.16171 18.4718C9.15712 15.8305 9.15025 13.1894 9.14567 10.546Z" fill="white"/>
</svg>
